<svg xmlns="http://www.w3.org/2000/svg" width="35" height="35" fill="none" viewBox="0 0 35 35">
  <path fill="#1E4736" fill-rule="evenodd" d="M22.982.956a.615.615 0 0 0-.916-.536L8.106 8.273a.615.615 0 0 0-.314.536V26.19c0 .222.12.427.313.536 1.816 1.022 11.006 6.19 13.96 7.853a.615.615 0 0 0 .917-.536V.956Zm6.166 7.674c2.325 3.008 3.54 5.99 3.554 8.957.013 2.952-1.17 5.868-3.535 8.76a1.051 1.051 0 0 0 1.626 1.33c2.722-3.326 4.026-6.704 4.01-10.1-.015-3.381-1.342-6.803-3.992-10.231a1.051 1.051 0 0 0-1.663 1.284ZM6.02 9.064a.615.615 0 0 0-.615-.615H.812a.615.615 0 0 0-.615.615v16.872a.615.615 0 0 0 .615.615h4.593a.615.615 0 0 0 .615-.615V9.064Zm19.209 3.652c2.276 3.738 2.27 6.86.094 9.436a1.051 1.051 0 0 0 1.605 1.356c2.742-3.245 2.962-7.177.095-11.885a1.051 1.051 0 0 0-1.794 1.094Z" clip-rule="evenodd"/>
</svg>
