<svg xmlns="http://www.w3.org/2000/svg" width="145" height="176" fill="none" viewBox="0 0 145 176">
  <path fill="#E0DAD6" stroke="#000" d="M.562 2a1.5 1.5 0 0 1 1.5-1.5H143a1.5 1.5 0 0 1 1.5 1.5v167.646a1.5 1.5 0 0 1-1.5 1.5H2.062a1.5 1.5 0 0 1-1.5-1.5V2Z"/>
  <path fill="#1E4736" fill-rule="evenodd" d="M17.93 7.454c4.669 0 8.457 3.921 8.457 8.753 0 4.831-3.788 8.753-8.457 8.753-4.669 0-8.456-3.922-8.456-8.753 0-4.832 3.788-8.753 8.456-8.753Z" clip-rule="evenodd"/>
  <path fill="#0D0D0D" fill-rule="evenodd" d="M17.93 10.371c3.112 0 5.638 2.615 5.638 5.836 0 3.22-2.526 5.835-5.638 5.835s-5.638-2.614-5.638-5.835 2.525-5.836 5.638-5.836Z" clip-rule="evenodd"/>
  <path fill="#1E4736" fill-rule="evenodd" d="M38.335 7.454c4.668 0 8.456 3.921 8.456 8.753 0 4.831-3.788 8.753-8.456 8.753-4.669 0-8.458-3.922-8.458-8.753 0-4.832 3.789-8.753 8.458-8.753Z" clip-rule="evenodd"/>
  <path fill="#0D0D0D" fill-rule="evenodd" d="M38.335 10.371c3.112 0 5.638 2.615 5.638 5.836 0 3.22-2.526 5.835-5.638 5.835-3.113 0-5.639-2.614-5.639-5.835s2.526-5.836 5.639-5.836Z" clip-rule="evenodd"/>
  <path fill="#1E4736" fill-rule="evenodd" d="M127.873 7.454c4.668 0 8.457 3.921 8.457 8.753 0 4.831-3.789 8.753-8.457 8.753-4.668 0-8.457-3.922-8.457-8.753 0-4.832 3.788-8.753 8.457-8.753Z" clip-rule="evenodd"/>
  <path fill="#0D0D0D" fill-rule="evenodd" d="M127.873 10.371c3.112 0 5.638 2.615 5.638 5.836 0 3.22-2.526 5.835-5.638 5.835s-5.638-2.614-5.638-5.835 2.526-5.836 5.638-5.836Z" clip-rule="evenodd"/>
  <path fill="#1E4736" fill-rule="evenodd" d="M73.424 118.751H36.957v-13.859c4.591-4.835 7.37-8.794 8.639-12.108 1.228-3.272-.625-5.73-1.37-7.544-.846-1.855-1.953-3.064-3.403-3.543-1.49-.5-3.16-.354-5.235.521v-7.565H6.512v88.968h133.804V74.652c-21.707 0-39.305 19.632-39.305 43.849-15.244 0-27.587.125-27.587.25ZM36.05 86.74c1.067-1.022 2.074-1.188 2.94-.5.805.667 2.779 2.293 2.276 4.543-.504 2.209-2.216 4.981-5.216 8.566v-12.61Z" clip-rule="evenodd"/>
  <path fill="#C9A740" fill-rule="evenodd" d="M8.785 125.314h128.809v3.272H8.784v-3.272Zm.185 8.816h128.809v3.272H8.969v-3.272Zm.039 18.404h128.809v3.272H9.008v-3.272Zm0-9.066h128.809v3.272H9.008v-3.272Z" clip-rule="evenodd"/>
  <path fill="#C9A740" fill-rule="evenodd" d="M24.452 122.796h3.423v38.054h-3.423v-38.054Zm17.054 0h3.403v38.054h-3.403v-38.054Zm18.85 0h3.403v38.054h-3.403v-38.054Zm22.714 0h3.403v38.054H83.07v-38.054Zm19.532 0h3.423v38.054h-3.423v-38.054Zm20.455 0h3.403v38.054h-3.403v-38.054Z" clip-rule="evenodd"/>
  <path fill="#1E4736" fill-rule="evenodd" d="M80.889 76.9c5.202 0 9.424 6.265 9.424 13.984 0 7.72-4.222 13.984-9.424 13.984-5.202 0-9.424-6.264-9.424-13.984 0-7.719 4.222-13.984 9.424-13.984Z" clip-rule="evenodd"/>
  <path fill="#000" fill-rule="evenodd" d="M0 33a1 1 0 0 1 1-1h143a1 1 0 0 1 0 2H1a1 1 0 0 1-1-1Z" clip-rule="evenodd"/>
  <path fill="#1E4736" fill-rule="evenodd" d="M78.981 101.868h4.088v18.903h-4.088v-18.903ZM48.414 78.463v12.442c3.12 9.336 6.262 13.942 9.423 13.984 3.122-.042 6.263-4.648 9.425-13.984V78.151h-3.786v12.17H59.69v-12.17h-4.208v12.087h-3.424V78.255h-3.644v.208Z" clip-rule="evenodd"/>
  <path fill="#1E4736" fill-rule="evenodd" d="M55.562 101.868h4.088v18.903h-4.088v-18.903Z" clip-rule="evenodd"/>
  <path fill="#0D0D0D" d="M129.819 171H120v4.354h9.819V171ZM24.82 171H15v4.354h9.82V171Z"/>
  <path fill="#000" fill-rule="evenodd" d="M0 2a2 2 0 0 1 2-2h141a2 2 0 1 1 0 4H2a2 2 0 0 1-2-2Z" clip-rule="evenodd"/>
</svg>
