<svg xmlns="http://www.w3.org/2000/svg" width="164" height="46" fill="none" viewBox="0 0 164 46">
  <path fill="#1E4736" d="M11.823 37V9.8c-.4 0-1.227.08-2.48.24l-7.84 1V9h23.36v2.04l-7.84-1c-1.254-.16-2.08-.24-2.48-.24V37h-2.72Zm16.326-14c0-2.053.36-3.96 1.08-5.72.747-1.787 1.774-3.333 3.08-4.64a13.982 13.982 0 0 1 4.64-3.08c1.787-.747 3.707-1.12 5.76-1.12 2.054 0 3.96.373 5.72 1.12a13.46 13.46 0 0 1 4.64 3.08 13.459 13.459 0 0 1 3.08 4.64c.747 1.76 1.12 3.667 1.12 5.72s-.373 3.973-1.12 5.76a13.98 13.98 0 0 1-3.08 4.64c-1.306 1.307-2.853 2.333-4.64 3.08-1.76.72-3.666 1.08-5.72 1.08-2.053 0-3.973-.36-5.76-1.08a14.848 14.848 0 0 1-4.64-3.08 14.849 14.849 0 0 1-3.08-4.64c-.72-1.787-1.08-3.707-1.08-5.76Zm3.04 0c0 2.72.48 5.107 1.44 7.16.96 2.027 2.307 3.613 4.04 4.76 1.734 1.12 3.747 1.68 6.04 1.68 2.294 0 4.307-.56 6.04-1.68 1.734-1.147 3.08-2.747 4.04-4.8s1.44-4.427 1.44-7.12c0-2.693-.48-5.053-1.44-7.08-.96-2.053-2.306-3.653-4.04-4.8-1.733-1.147-3.746-1.72-6.04-1.72-2.293 0-4.306.573-6.04 1.72-1.706 1.12-3.053 2.707-4.04 4.76-.96 2.027-1.44 4.4-1.44 7.12ZM65.657 9h2.72v27.2c.507 0 1.307-.08 2.4-.24l6.64-1V37h-11.76V9Zm47.799 28 10.32-13.96L114.256 9h3.2l7.88 11.64h.24L132.416 9h3.2l-9.6 12.68 10.4 15.32h-3.2l-8.76-12.92h-.24L116.656 37h-3.2Zm25.033 0 10.76-28h2.48l10.76 28h-2.92l-4.96-13.12h-9.08L141.409 37h-2.92Zm11.04-25.92-3.72 11.84h8.44l-4.48-11.84h-.24Z"/>
  <path fill="#C9A740" d="M95.447 8.415c3.081.03 5.959.85 8.45 2.712.483.361.97.742 1.391 1.176.029.03.019.017.036.04.086.282.105.594.115.887.003.066.004.133.005.2a6.63 6.63 0 0 1-.071.995 6.558 6.558 0 0 1-.119.586 6.35 6.35 0 0 1-.246.758 6.163 6.163 0 0 1-.248.544c-.552 1.05-1.437 1.88-2.448 2.475-.288.17-.584.33-.903.43-.187.057-.399.099-.571.192a8.308 8.308 0 0 0-.918-.771c-1.355-1.02-2.878-1.74-4.497-2.22l.024-8.004Z"/>
  <path fill="#0D0D0D" d="M109.327 27.257a13.807 13.807 0 0 1-.561 1.577c-.055.13-.111.257-.169.384a16.78 16.78 0 0 1-.373.75 13.069 13.069 0 0 1-.416.725 15.71 15.71 0 0 1-.459.7 14.975 14.975 0 0 1-.764.994 14.43 14.43 0 0 1-.558.623c-2.689 2.809-6.33 4.53-10.227 4.598a14.423 14.423 0 0 1-2.193-.112 14.773 14.773 0 0 1-2.502-.545 14.744 14.744 0 0 1-2.694-1.145 14.52 14.52 0 0 1-2.415-1.66 14.385 14.385 0 0 1-.814-.742 13.453 13.453 0 0 1-.946-1.011 13.7 13.7 0 0 1-1.036-1.388 13.888 13.888 0 0 1-1.148-2.135 14.484 14.484 0 0 1-.588-1.632 14.26 14.26 0 0 1-.512-2.724 14.314 14.314 0 0 1-.053-1.04c-.059-4.047 1.383-7.854 4.196-10.766 2.483-2.57 6.094-4.216 9.67-4.265l-.022.006c-.285.075-.594.095-.885.145a12.305 12.305 0 0 0-1.932.483 14.005 14.005 0 0 0-2.614 1.182 13.78 13.78 0 0 0-2.078 1.484 14.163 14.163 0 0 0-1.572 1.593 14.105 14.105 0 0 0-1.298 1.824 13.648 13.648 0 0 0-1.458 3.492 13.092 13.092 0 0 0-.263 1.238 13.685 13.685 0 0 0-.17 1.679c-.021.445-.05.92-.007 1.364a11.945 11.945 0 0 0 .218 1.779 12.047 12.047 0 0 0 .807 2.56 12.102 12.102 0 0 0 2.73 3.88c.072.068.145.136.219.202 2.12 1.94 4.946 3.162 7.84 3.024 1.098-.053 2.205-.368 2.964-1.213a3.56 3.56 0 0 0 .898-2.535c-.04-.673-.295-1.271-.634-1.845-.068-.116-.164-.296-.27-.377-.01-.008-.022-.014-.032-.021.254-.212.475-.459.74-.662.896-.688 1.371-.784 1.704-1.945.23.185.448.422.642.647 1.1 1.272 1.714 2.88 1.587 4.578-.146 1.965-1.161 3.407-2.591 4.652 1.066-.38 2.038-1.149 2.79-1.988 1.493-1.667 2.133-3.947 2.014-6.16a12.427 12.427 0 0 0-.161-1.358 12.13 12.13 0 0 0-.176-.802 11.817 11.817 0 0 0-.325-1.044 11.598 11.598 0 0 0-.81-1.732 10.934 10.934 0 0 0-.755-1.139 9.928 9.928 0 0 0-.7-.838 13.568 13.568 0 0 0-.38-.392 13.43 13.43 0 0 0-.399-.372c-2.56-2.3-6.17-3.49-9.584-3.296-2.06.117-4.042.664-5.758 1.84-.248.17-.578.355-.772.583a.281.281 0 0 0-.077.236c.017.131.12.216.221.287.778.544 3.862 1.838 4.792 1.635a.905.905 0 0 0 .514-.32.964.964 0 0 0 .08-.117c.244-.413.176-.875.062-1.317.224.366.384.75.346 1.188-.028.328-.167.64-.424.852-.375.31-.828.292-1.282.24.352.216.725.38 1.133.453.562.1 1.175-.004 1.644-.34.479-.345.677-.835.773-1.402.538.202 1.157.485 1.441 1.02.105.199.157.468.08.685a.438.438 0 0 1-.17.22c-.192.131-.44.216-.653.314-.37.169-.738.342-1.104.52.39.102.792.13 1.194.135-.108.333-.13.652-.13 1 .39-.324.73-.703 1.13-1.015.387-.303.817-.532 1.187-.862.007.13.025.255.055.382.212.917.838 1.563 1.665 1.966.357.174.741.31 1.078.523.247.156.397.331.462.621-.02.08-.039.163-.083.233-.308.482-1.434.746-1.986.859.457.246.827.257 1.335.197-.25.295-.336.662-.384 1.038-.012.009-.027.01-.041.015-.062-.04-.098-.102-.144-.159-.48-.595-.988-1.15-1.564-1.651-1.755-1.528-4.452-2.976-6.789-3.217-.058-.085-.113-.17-.184-.247a7.359 7.359 0 0 0-1.225-1.03c-.37-.249-.752-.482-1.136-.707-.53-.31-2.202-1.168-2.463-1.604-.1-.166-.099-.485-.054-.668.136-.556 1.147-1.148 1.624-1.433 2.421-1.443 5.393-1.866 8.157-1.498.698.093 1.39.253 2.07.428 1.62.48 3.143 1.2 4.497 2.22.319.24.638.488.919.771.404.375.77.78 1.16 1.166.301.38.58.773.87 1.162.299.517.587 1.042.862 1.573.16.33.284.667.395 1.015.058.184.104.386.181.56.175.602.251 1.202.367 1.814 1.501.672 3.029.957 4.654.557Z"/>
  <path fill="#C9A740" d="M106.911 14.101c.696.982 1.308 1.934 1.796 3.04.132.3.244.604.355.912.054.15.099.323.171.465-.208.326-.412.657-.654.96-.795.999-1.942 1.822-3.193 2.1a6.809 6.809 0 0 1-1.477.172c-.345-.001-.697-.044-1.041-.012-.29-.389-.569-.782-.87-1.162.949-.414 1.818-.876 2.594-1.574a7.083 7.083 0 0 0 .607-.62l.112-.133a16.057 16.057 0 0 0 .213-.274c.035-.046.069-.093.102-.14l.099-.144a7.866 7.866 0 0 0 .186-.293l.087-.15a4.827 4.827 0 0 0 .164-.307 8.698 8.698 0 0 0 .149-.314l.069-.16a8.742 8.742 0 0 0 .181-.49 4.983 4.983 0 0 0 .101-.332 5.034 5.034 0 0 0 .085-.338 5.003 5.003 0 0 0 .068-.341 9.921 9.921 0 0 0 .051-.345 5.051 5.051 0 0 0 .034-.346l.011-.174Z"/>
  <path fill="#0D0D0D" d="M86.888 18.89c-.058.015-.115.031-.175.026a.399.399 0 0 1-.278-.14.407.407 0 0 1-.086-.302c.018-.161.1-.24.223-.335.052-.002.103-.004.155 0a.456.456 0 0 1 .324.163.327.327 0 0 1 .071.254c-.02.149-.122.245-.234.334Z"/>
  <path fill="#1E4736" d="M109.755 20.585c.047.44.114.877.15 1.32a14.973 14.973 0 0 1-.028 2.54c-.033.356-.064.732-.152 1.08-.12.05-.256.084-.381.118-1.58.43-3.353.165-4.768-.65.01-.459-.056-.654-.2-1.081-.041-.124-.099-.256-.119-.385-.013-.083.047-.142.092-.205.169-.023.35-.02.521-.034a5.743 5.743 0 0 0 .982-.162c1.343-.334 2.492-1.036 3.443-2.04.135-.142.364-.34.46-.5ZM88.45 22.931c.07.076.125.162.183.247 2.337.24 5.034 1.689 6.79 3.216a12.821 12.821 0 0 1 1.563 1.652c.046.057.082.119.144.159.014-.005.03-.006.04-.015.004.068 0 .136.036.197l.031.02c.107.082.203.262.27.378.34.573.596 1.172.636 1.845a3.56 3.56 0 0 1-.899 2.535c-.76.845-1.866 1.16-2.965 1.213-2.893.138-5.718-1.084-7.839-3.024a11.96 11.96 0 0 1-1.6-1.764 12.457 12.457 0 0 1-.813-1.251 12.093 12.093 0 0 1-1.344-3.627 12.248 12.248 0 0 1-.217-1.78l3.77.002c.736.002 1.479.037 2.213-.003Z"/>
  <path fill="#1E4736" d="m103.73 23.311.619.01c-.045.064-.105.123-.092.206.02.13.078.26.119.385.144.427.21.622.2 1.08-.089-.043-.173-.084-.27-.105-.077-.175-.123-.377-.181-.56a7.547 7.547 0 0 0-.395-1.016Z"/>
</svg>
