<svg xmlns="http://www.w3.org/2000/svg" width="71" height="46" fill="none" viewBox="0 0 71 46">
  <path fill="#DE3939" d="M36.66 33.767c4.284 0 7.77-3.696 7.77-8.24V9.635c0-4.543-3.486-8.24-7.77-8.24-4.284 0-7.77 3.697-7.77 8.24v15.892c0 4.544 3.486 8.24 7.77 8.24ZM30.693 9.635c0-3.554 2.677-6.445 5.967-6.445 3.29 0 5.967 2.891 5.967 6.445v15.892c0 3.554-2.677 6.445-5.967 6.445-3.29 0-5.967-2.89-5.967-6.445V9.635Z"/>
  <path fill="#DE3939" d="M46.53 17.367a.732.732 0 0 0-.733.73v10.261c0 1.756-.927 3.424-2.61 4.7-1.743 1.32-4.06 2.046-6.526 2.046s-4.784-.727-6.527-2.047c-1.683-1.275-2.61-2.943-2.61-4.699v-10.26a.732.732 0 0 0-.734-.731.732.732 0 0 0-.734.73v10.261c0 4.335 4.364 7.895 9.87 8.187v6.598h-4.172v1.46h9.813v-1.46h-4.172v-6.598c5.506-.293 9.87-3.852 9.87-8.187v-10.26a.732.732 0 0 0-.734-.731Z"/>
  <path stroke="#DE3939" stroke-width="2" d="m50.6 10.8-28 21m-.2-21 28 21"/>
</svg>
