<svg xmlns="http://www.w3.org/2000/svg" width="145" height="176" fill="none" viewBox="0 0 145 176">
  <path fill="#0D0D0D" d="M129.819 171H120v4.354h9.819V171ZM24.82 171H15v4.354h9.82V171Z"/>
  <path fill="#E0DAD6" stroke="#000" d="M.562 2a1.5 1.5 0 0 1 1.5-1.5H143a1.5 1.5 0 0 1 1.5 1.5v167.646a1.5 1.5 0 0 1-1.5 1.5H2.062a1.5 1.5 0 0 1-1.5-1.5V2Z"/>
  <path fill="#1E4736" fill-rule="evenodd" d="M17.93 7.454c4.669 0 8.457 3.921 8.457 8.753 0 4.831-3.788 8.753-8.457 8.753-4.669 0-8.456-3.922-8.456-8.753 0-4.832 3.788-8.753 8.456-8.753Z" clip-rule="evenodd"/>
  <path fill="#0D0D0D" fill-rule="evenodd" d="M17.93 10.371c3.112 0 5.638 2.615 5.638 5.836 0 3.22-2.526 5.835-5.638 5.835s-5.638-2.614-5.638-5.835 2.525-5.836 5.638-5.836Z" clip-rule="evenodd"/>
  <path fill="#1E4736" fill-rule="evenodd" d="M38.335 7.454c4.668 0 8.456 3.921 8.456 8.753 0 4.831-3.788 8.753-8.456 8.753-4.669 0-8.458-3.922-8.458-8.753 0-4.832 3.789-8.753 8.458-8.753Z" clip-rule="evenodd"/>
  <path fill="#0D0D0D" fill-rule="evenodd" d="M38.335 10.371c3.112 0 5.638 2.615 5.638 5.836 0 3.22-2.526 5.835-5.638 5.835-3.113 0-5.639-2.614-5.639-5.835s2.526-5.836 5.639-5.836Z" clip-rule="evenodd"/>
  <path fill="#1E4736" fill-rule="evenodd" d="M127.873 7.454c4.668 0 8.457 3.921 8.457 8.753 0 4.831-3.789 8.753-8.457 8.753-4.668 0-8.457-3.922-8.457-8.753 0-4.832 3.788-8.753 8.457-8.753Z" clip-rule="evenodd"/>
  <path fill="#0D0D0D" fill-rule="evenodd" d="M127.873 10.371c3.112 0 5.638 2.615 5.638 5.836 0 3.22-2.526 5.835-5.638 5.835s-5.638-2.614-5.638-5.835 2.526-5.836 5.638-5.836Z" clip-rule="evenodd"/>
  <path fill="#000" fill-rule="evenodd" d="M0 33a1 1 0 0 1 1-1h143a1 1 0 0 1 0 2H1a1 1 0 0 1-1-1Z" clip-rule="evenodd"/>
  <path fill="#C9A740" d="M117.386 94.411c0-24.581-19.927-44.508-44.508-44.508-24.582 0-44.51 19.927-44.51 44.508 0 24.582 19.928 44.509 44.51 44.509 24.58 0 44.508-19.927 44.508-44.509Z"/>
  <path fill="#1E4736" d="M108.464 95.074c0-19.665-15.941-35.607-35.606-35.607-19.666 0-35.607 15.942-35.607 35.607s15.941 35.607 35.607 35.607c19.665 0 35.606-15.942 35.606-35.607Z"/>
  <path fill="#000" fill-rule="evenodd" d="M0 2a2 2 0 0 1 2-2h141a2 2 0 1 1 0 4H2a2 2 0 0 1-2-2Z" clip-rule="evenodd"/>
</svg>
