<?xml version="1.0" encoding="utf-8" ?>
<svg xmlns="http://www.w3.org/2000/svg" xmlns:xlink="http://www.w3.org/1999/xlink" width="1006" height="1006">
	<path fill="#EFECEA" transform="scale(0.982422 0.982422)" d="M495.807 157.092C501.402 156.496 506.931 156.417 512.549 156.401L511.95 351.544C495.244 347.292 478.293 343.388 461.186 341.122C393.404 332.144 320.548 342.457 261.2 377.643C249.484 384.589 224.703 399.024 221.37 412.58C220.273 417.042 220.232 424.811 222.687 428.873C229.097 439.479 270.094 460.41 283.075 467.964C292.492 473.445 301.874 479.137 310.932 485.193C321.937 492.55 331.792 500.775 340.973 510.318C322.973 511.302 304.751 510.45 286.722 510.377L194.292 510.356C193.213 499.52 193.932 487.957 194.443 477.104Q194.646 471.961 195.008 466.827Q195.371 461.693 195.893 456.572Q196.415 451.452 197.097 446.351Q197.778 441.249 198.618 436.171Q199.458 431.093 200.456 426.044Q201.453 420.995 202.608 415.979Q203.762 410.963 205.072 405.986Q206.382 401.008 207.847 396.074Q209.311 391.14 210.928 386.254Q212.546 381.368 214.314 376.534Q216.083 371.701 218.001 366.925Q219.919 362.148 221.986 357.434Q224.052 352.72 226.264 348.073Q228.475 343.426 230.831 338.849Q233.186 334.273 235.683 329.772Q238.18 325.272 240.816 320.851Q242.83 317.498 244.921 314.193Q247.012 310.887 249.177 307.631Q251.343 304.374 253.583 301.167Q255.823 297.961 258.136 294.807Q260.448 291.653 262.833 288.552Q265.217 285.452 267.672 282.407Q270.126 279.362 272.65 276.374Q275.174 273.386 277.765 270.456Q280.357 267.527 283.015 264.658Q285.673 261.788 288.396 258.981Q291.119 256.173 293.905 253.428Q296.692 250.684 299.54 248.004Q302.389 245.324 305.298 242.71Q308.208 240.096 311.176 237.549Q314.144 235.002 317.17 232.524Q320.196 230.046 323.278 227.638Q326.36 225.229 329.496 222.892Q332.633 220.556 335.822 218.291Q339.011 216.026 342.251 213.836Q345.491 211.645 348.78 209.529Q352.069 207.412 355.406 205.372Q358.743 203.332 362.126 201.369Q365.509 199.405 368.935 197.52Q372.362 195.635 375.831 193.829Q379.301 192.022 382.81 190.296Q386.32 188.569 389.868 186.924Q393.416 185.278 397.001 183.714Q400.586 182.151 404.206 180.669Q407.826 179.188 411.478 177.79Q415.131 176.392 418.815 175.078Q422.499 173.764 426.212 172.534Q429.925 171.305 433.665 170.161Q453.303 164.116 473.576 160.774C480.713 159.537 488.305 159.062 495.282 157.236C495.457 157.19 495.632 157.14 495.807 157.092Z"/>
	<path fill="#C9A841" transform="scale(0.982422 0.982422)" d="M512.549 156.401C588.093 157.113 658.646 177.149 719.708 222.523C731.56 231.33 743.485 240.615 753.83 251.197C754.525 251.907 754.281 251.61 754.707 252.183C756.81 259.05 757.279 266.658 757.515 273.799Q757.619 276.231 757.644 278.664Q757.669 281.098 757.615 283.531Q757.561 285.964 757.427 288.394Q757.293 290.825 757.08 293.249Q756.868 295.673 756.576 298.09Q756.284 300.506 755.914 302.911Q755.543 305.317 755.095 307.709Q754.646 310.101 754.12 312.477Q753.594 314.853 752.99 317.211Q752.387 319.569 751.707 321.906Q751.027 324.243 750.271 326.556Q749.515 328.87 748.685 331.157Q747.854 333.445 746.949 335.704Q746.044 337.964 745.066 340.192Q744.088 342.421 743.037 344.616Q741.987 346.812 740.866 348.972C727.341 374.566 705.63 394.803 680.848 409.312C673.791 413.443 666.548 417.357 658.706 419.777C654.131 421.189 648.935 422.195 644.724 424.485C637.815 417.559 630.016 411.526 622.196 405.673C588.991 380.819 551.646 363.248 511.95 351.544L512.549 156.401Z"/>
	<path fill="#0E0E0D" transform="scale(0.982422 0.982422)" d="M852.85 615.8Q851.42 620.704 849.843 625.563Q848.267 630.423 846.545 635.233Q844.824 640.043 842.96 644.799Q841.095 649.555 839.089 654.254Q837.083 658.952 834.938 663.588Q832.792 668.224 830.508 672.794Q828.225 677.364 825.805 681.863Q823.386 686.363 820.833 690.788Q818.281 695.213 815.596 699.559Q812.912 703.906 810.099 708.171Q807.286 712.435 804.347 716.613Q801.407 720.791 798.344 724.88Q795.281 728.968 792.097 732.963Q788.912 736.958 785.61 740.856Q782.308 744.753 778.89 748.551Q775.473 752.348 771.943 756.041C706.001 824.537 616.739 866.483 521.193 868.158Q516.704 868.265 512.215 868.26Q507.725 868.255 503.237 868.139Q498.748 868.022 494.264 867.793Q489.78 867.565 485.303 867.224Q480.826 866.884 476.359 866.432Q471.892 865.98 467.438 865.417Q462.984 864.854 458.545 864.18Q454.106 863.506 449.685 862.721Q445.264 861.937 440.864 861.042Q436.465 860.148 432.088 859.144Q427.712 858.14 423.362 857.027Q419.013 855.915 414.692 854.694Q410.371 853.473 406.083 852.145Q401.794 850.817 397.539 849.382Q393.285 847.947 389.067 846.407Q384.85 844.867 380.673 843.222Q376.495 841.577 372.36 839.828Q368.224 838.08 364.134 836.228Q360.043 834.377 356 832.424Q351.957 830.472 347.964 828.419Q343.971 826.366 340.031 824.214Q336.09 822.063 332.204 819.813Q328.319 817.564 324.49 815.219Q320.662 812.873 316.893 810.433Q313.124 807.993 309.417 805.459Q305.711 802.926 302.068 800.301Q298.426 797.676 294.85 794.96Q291.274 792.245 287.767 789.442Q284.26 786.639 280.824 783.749Q277.388 780.859 274.025 777.884Q270.662 774.909 267.374 771.851Q264.086 768.794 260.876 765.655Q257.826 762.719 254.85 759.71Q251.873 756.7 248.972 753.617Q246.071 750.534 243.247 747.381Q240.423 744.228 237.678 741.006Q234.932 737.784 232.267 734.495Q229.602 731.206 227.02 727.852Q224.437 724.498 221.937 721.082Q219.438 717.665 217.024 714.188Q214.61 710.711 212.283 707.175Q209.955 703.639 207.716 700.047Q205.476 696.455 203.326 692.808Q201.176 689.162 199.117 685.463Q197.058 681.765 195.091 678.017Q193.123 674.268 191.249 670.473Q189.375 666.677 187.595 662.836Q185.816 658.996 184.131 655.112Q182.447 651.229 180.859 647.305Q179.271 643.381 177.781 639.419Q176.29 635.457 174.898 631.459Q173.506 627.462 172.213 623.431Q170.92 619.4 169.727 615.339Q168.534 611.277 167.442 607.187Q166.349 603.098 165.358 598.982Q164.367 594.867 163.478 590.728Q162.589 586.589 161.803 582.43Q161.016 578.271 160.333 574.093Q159.649 569.916 159.069 565.722Q158.489 561.529 158.013 557.323Q157.536 553.117 157.164 548.9Q156.791 544.684 156.523 540.459Q156.255 536.234 156.092 532.005Q155.928 527.775 155.869 523.542C154.419 424.896 189.771 332.063 258.731 261.07C319.612 198.393 408.159 158.291 495.807 157.092C495.632 157.14 495.457 157.19 495.282 157.236C488.305 159.062 480.713 159.537 473.576 160.774Q453.303 164.116 433.665 170.161Q429.925 171.305 426.212 172.534Q422.499 173.764 418.815 175.078Q415.131 176.392 411.478 177.79Q407.826 179.188 404.206 180.669Q400.586 182.151 397.001 183.714Q393.416 185.278 389.868 186.924Q386.32 188.569 382.81 190.296Q379.301 192.022 375.831 193.829Q372.362 195.635 368.935 197.52Q365.509 199.405 362.126 201.369Q358.743 203.332 355.406 205.372Q352.069 207.412 348.78 209.529Q345.491 211.645 342.251 213.836Q339.011 216.026 335.822 218.291Q332.633 220.555 329.497 222.892Q326.36 225.229 323.278 227.638Q320.196 230.046 317.17 232.524Q314.145 235.002 311.176 237.549Q308.208 240.096 305.298 242.71Q302.389 245.324 299.54 248.004Q296.692 250.684 293.905 253.428Q291.119 256.173 288.396 258.981Q285.673 261.788 283.015 264.658Q280.357 267.527 277.765 270.456Q275.174 273.386 272.65 276.374Q270.126 279.362 267.672 282.407Q265.217 285.452 262.833 288.552Q260.448 291.653 258.136 294.807Q255.823 297.961 253.583 301.167Q251.343 304.374 249.178 307.631Q247.012 310.887 244.921 314.193Q242.83 317.498 240.816 320.851Q238.18 325.272 235.683 329.772Q233.186 334.273 230.831 338.849Q228.475 343.426 226.264 348.073Q224.052 352.72 221.986 357.434Q219.919 362.148 218.001 366.925Q216.083 371.701 214.314 376.534Q212.546 381.367 210.928 386.254Q209.311 391.14 207.847 396.074Q206.382 401.008 205.072 405.986Q203.762 410.963 202.608 415.979Q201.453 420.995 200.456 426.044Q199.458 431.093 198.618 436.171Q197.778 441.249 197.097 446.351Q196.415 451.452 195.893 456.573Q195.371 461.693 195.008 466.827Q194.646 471.961 194.443 477.104C193.932 487.957 193.213 499.52 194.292 510.356Q194.467 513.997 194.732 517.633Q194.997 521.268 195.352 524.896Q195.706 528.525 196.15 532.143Q196.594 535.761 197.127 539.367Q197.661 542.973 198.283 546.565Q198.905 550.157 199.615 553.732Q200.326 557.308 201.124 560.864Q201.923 564.421 202.809 567.957Q203.695 571.493 204.668 575.006Q205.641 578.519 206.701 582.007Q207.76 585.495 208.905 588.956Q210.051 592.417 211.281 595.848Q212.511 599.279 213.826 602.679Q215.141 606.079 216.539 609.446Q217.937 612.812 219.418 616.143Q220.899 619.474 222.462 622.768Q224.024 626.061 225.668 629.315Q227.311 632.569 229.034 635.781Q230.758 638.993 232.56 642.162Q234.362 645.331 236.241 648.454Q238.121 651.578 240.077 654.654Q242.034 657.729 244.065 660.756Q246.097 663.783 248.202 666.759Q250.308 669.734 252.486 672.657Q254.665 675.58 256.915 678.448Q259.165 681.316 261.485 684.128Q263.805 686.94 266.193 689.693Q268.582 692.447 271.038 695.141Q273.494 697.835 276.016 700.467Q278.538 703.099 281.123 705.669Q283.709 708.238 286.358 710.743Q289.006 713.247 291.716 715.686C343.711 762.984 412.983 792.773 483.914 789.398C510.846 788.117 537.983 780.43 556.599 759.829C571.504 743.334 579.957 720.301 578.631 698.034C577.653 681.607 571.382 667.025 563.069 653.034C561.402 650.228 559.041 645.819 556.438 643.848C556.19 643.661 555.923 643.502 555.665 643.329C561.91 638.182 567.321 632.148 573.804 627.201C595.788 610.428 607.428 608.079 615.577 579.777C621.252 584.301 626.572 590.074 631.335 595.556C658.287 626.573 673.349 665.777 670.243 707.174C666.648 755.08 641.784 790.228 606.708 820.576C632.845 811.335 656.682 792.581 675.111 772.125C711.734 731.476 727.402 675.891 724.484 621.941Q724.295 618.609 724.024 615.283Q723.753 611.956 723.4 608.638Q723.047 605.319 722.612 602.01Q722.178 598.701 721.661 595.404Q721.145 592.107 720.547 588.823Q719.949 585.54 719.27 582.272Q718.592 579.005 717.832 575.755Q717.073 572.505 716.234 569.275Q715.394 566.044 714.476 562.836Q713.557 559.628 712.559 556.443Q711.561 553.258 710.485 550.099Q709.409 546.94 708.255 543.808Q707.101 540.677 705.87 537.575Q704.639 534.473 703.332 531.402Q702.025 528.331 700.642 525.294Q699.26 522.256 697.803 519.254Q696.345 516.251 694.815 513.286Q693.284 510.32 691.68 507.393Q690.076 504.466 688.401 501.58Q686.725 498.694 684.979 495.85Q683.232 493.006 681.416 490.206Q679.6 487.406 677.716 484.652Q675.831 481.897 673.879 479.19Q671.927 476.483 669.908 473.826Q667.89 471.168 665.807 468.56Q663.723 465.953 661.576 463.398Q659.429 460.843 657.219 458.342Q655.009 455.841 652.739 453.395Q650.468 450.95 648.137 448.561Q645.807 446.172 643.418 443.841Q641.029 441.511 638.584 439.24Q636.138 436.969 633.637 434.759C570.891 378.673 482.366 349.684 398.652 354.402C348.167 357.247 299.557 370.595 257.496 399.265C251.4 403.421 243.304 407.922 238.555 413.486C237.072 415.225 236.363 416.916 236.671 419.234C237.097 422.429 239.598 424.497 242.093 426.231C261.155 439.483 336.765 471.031 359.583 466.093Q360.15 465.967 360.709 465.812Q361.268 465.658 361.819 465.474Q362.37 465.291 362.91 465.079Q363.451 464.868 363.98 464.629Q364.508 464.389 365.024 464.123Q365.54 463.857 366.041 463.565Q366.543 463.273 367.029 462.955Q367.514 462.637 367.983 462.295Q368.452 461.952 368.902 461.586Q369.352 461.22 369.783 460.831Q370.214 460.442 370.624 460.032Q371.035 459.621 371.423 459.19Q371.812 458.759 372.178 458.309Q372.544 457.858 372.886 457.389Q373.228 456.92 373.545 456.434Q373.863 455.949 374.155 455.447C380.136 445.36 378.461 434.097 375.671 423.318C381.166 432.24 385.079 441.605 384.154 452.286C383.462 460.292 380.046 467.896 373.752 473.073C364.558 480.636 353.448 480.172 342.324 478.906C350.953 484.173 360.104 488.183 370.108 489.961C383.879 492.408 398.906 489.872 410.401 481.648C422.141 473.248 427.008 461.31 429.351 447.478C442.535 452.42 457.721 459.3 464.689 472.377C467.26 477.204 468.525 483.775 466.643 489.055C465.84 491.307 464.441 493.051 462.477 494.399C457.773 497.625 451.677 499.691 446.461 502.071Q432.851 508.25 419.394 514.755C428.985 517.231 438.81 517.946 448.679 518.043C446.027 526.156 445.474 533.932 445.494 542.407C455.033 534.523 463.369 525.285 473.172 517.674C482.682 510.29 493.22 504.699 502.295 496.674C502.473 499.851 502.913 502.883 503.635 505.984C508.842 528.338 524.186 544.084 544.461 553.903C553.217 558.144 562.635 561.488 570.895 566.673C576.955 570.477 580.632 574.745 582.229 581.812C581.749 583.755 581.27 585.768 580.177 587.47C572.629 599.225 545.023 605.675 531.504 608.424C542.697 614.411 551.762 614.699 564.213 613.235C558.081 620.424 555.99 629.373 554.805 638.526C554.527 638.747 554.142 638.781 553.805 638.892C552.276 637.916 551.393 636.42 550.272 635.035C538.523 620.526 526.055 606.982 511.934 594.761C468.895 557.51 402.768 522.213 345.492 516.347C344.066 514.259 342.7 512.175 340.973 510.318C331.792 500.775 321.937 492.55 310.932 485.193C301.874 479.137 292.492 473.445 283.075 467.964C270.094 460.41 229.097 439.479 222.687 428.873C220.232 424.811 220.273 417.042 221.37 412.58C224.703 399.024 249.484 384.589 261.2 377.643C320.548 342.457 393.404 332.144 461.186 341.122C478.293 343.388 495.244 347.292 511.95 351.544C551.646 363.248 588.991 380.819 622.196 405.673C630.016 411.526 637.815 417.559 644.724 424.485C654.613 433.61 663.593 443.479 673.158 452.9C680.542 462.175 687.366 471.753 694.48 481.221Q705.497 500.157 715.629 519.582C719.534 527.605 722.572 535.854 725.295 544.335C726.731 548.805 727.848 553.733 729.739 558.001C734.034 572.648 735.885 587.286 738.738 602.212C775.538 618.595 812.992 625.551 852.85 615.8Z"/>
	<path fill="#EFECEA" transform="scale(0.982422 0.982422)" d="M754.707 252.183C765.644 260.242 784.972 279.213 792.846 289.686L793.608 295.041Q793.503 297.16 793.345 299.277Q793.188 301.393 792.979 303.505Q792.769 305.617 792.508 307.723Q792.246 309.828 791.933 311.927Q791.62 314.026 791.255 316.117Q790.89 318.207 790.473 320.288Q790.057 322.369 789.589 324.439Q789.121 326.509 788.603 328.567Q788.084 330.624 787.515 332.669Q786.946 334.713 786.327 336.743Q785.707 338.773 785.038 340.787Q784.369 342.8 783.65 344.797Q782.932 346.794 782.164 348.772Q781.396 350.751 780.58 352.71Q779.764 354.668 778.9 356.607Q778.035 358.545 777.124 360.461Q776.212 362.377 775.253 364.27Q774.294 366.164 773.289 368.033Q772.284 369.901 771.233 371.745Q770.182 373.589 769.086 375.406Q767.99 377.223 766.849 379.012Q765.708 380.802 764.524 382.563Q763.34 384.324 762.112 386.055Q760.885 387.786 759.615 389.486Q758.345 391.187 757.034 392.855Q755.723 394.524 754.371 396.159Q753.019 397.795 751.627 399.397Q750.235 400.999 748.804 402.566Q747.373 404.133 745.904 405.664Q744.434 407.195 742.928 408.69Q741.421 410.185 739.878 411.642Q738.335 413.099 736.757 414.517C717.73 431.55 696.433 442.797 673.158 452.9C663.593 443.479 654.613 433.61 644.724 424.485C648.935 422.195 654.131 421.189 658.706 419.777C666.548 417.357 673.791 413.443 680.848 409.312C705.63 394.803 727.341 374.566 740.866 348.972Q741.987 346.812 743.037 344.616Q744.088 342.421 745.066 340.192Q746.044 337.964 746.949 335.704Q747.854 333.445 748.685 331.157Q749.515 328.87 750.271 326.556Q751.027 324.243 751.707 321.906Q752.387 319.569 752.99 317.211Q753.594 314.853 754.12 312.477Q754.646 310.101 755.095 307.709Q755.543 305.317 755.914 302.911Q756.284 300.506 756.576 298.09Q756.868 295.673 757.08 293.249Q757.293 290.825 757.427 288.394Q757.561 285.964 757.615 283.531Q757.669 281.098 757.644 278.664Q757.619 276.231 757.515 273.799C757.279 266.658 756.81 259.05 754.707 252.183Z"/>
	<path fill="#C9A841" transform="scale(0.982422 0.982422)" d="M793.608 295.041C810.667 318.979 825.681 342.185 837.651 369.169C840.883 376.455 843.627 383.885 846.338 391.375C847.672 395.062 848.78 399.254 850.545 402.729C845.436 410.684 840.428 418.737 834.509 426.126C815.003 450.478 786.892 470.557 756.229 477.332C744.42 479.941 732.107 481.533 720.017 481.51C711.549 481.494 702.916 480.437 694.48 481.221C687.366 471.753 680.542 462.175 673.158 452.9C696.433 442.797 717.73 431.55 736.757 414.517Q738.335 413.099 739.878 411.642Q741.421 410.185 742.928 408.69Q744.434 407.195 745.904 405.664Q747.373 404.133 748.804 402.566Q750.235 400.999 751.627 399.397Q753.019 397.795 754.371 396.159Q755.723 394.524 757.034 392.855Q758.345 391.187 759.615 389.486Q760.885 387.786 762.112 386.055Q763.34 384.324 764.524 382.563Q765.708 380.802 766.849 379.012Q767.99 377.223 769.086 375.406Q770.182 373.589 771.233 371.745Q772.284 369.901 773.289 368.033Q774.294 366.164 775.253 364.27Q776.212 362.377 777.123 360.461Q778.035 358.545 778.9 356.607Q779.764 354.668 780.58 352.71Q781.396 350.751 782.164 348.772Q782.932 346.794 783.65 344.797Q784.369 342.8 785.038 340.787Q785.707 338.773 786.327 336.743Q786.946 334.713 787.515 332.669Q788.084 330.624 788.603 328.567Q789.121 326.509 789.589 324.439Q790.057 322.369 790.473 320.288Q790.89 318.207 791.255 316.117Q791.62 314.026 791.933 311.927Q792.246 309.828 792.508 307.723Q792.769 305.617 792.979 303.505Q793.188 301.393 793.345 299.277Q793.503 297.16 793.608 295.041Z"/>
	<path fill="#EFECEA" transform="scale(0.982422 0.982422)" d="M554.805 638.526C555.99 629.373 558.081 620.424 564.213 613.235C551.762 614.699 542.697 614.411 531.504 608.424C545.023 605.675 572.629 599.225 580.177 587.47C581.27 585.768 581.749 583.755 582.229 581.812C580.632 574.745 576.955 570.477 570.895 566.673C562.635 561.488 553.217 558.144 544.461 553.903C524.186 544.084 508.842 528.338 503.635 505.984C502.913 502.883 502.473 499.851 502.295 496.674C493.22 504.699 482.682 510.29 473.172 517.674C463.369 525.285 455.033 534.523 445.494 542.407C445.474 533.932 446.027 526.156 448.679 518.043C438.81 517.946 428.985 517.231 419.394 514.755Q432.851 508.25 446.461 502.071C451.677 499.691 457.773 497.625 462.477 494.399C464.441 493.051 465.84 491.307 466.643 489.055C468.525 483.775 467.26 477.204 464.689 472.377C457.721 459.3 442.535 452.42 429.351 447.478C427.008 461.31 422.141 473.248 410.401 481.648C398.906 489.872 383.879 492.408 370.108 489.961C360.104 488.183 350.953 484.173 342.324 478.906C353.448 480.172 364.558 480.636 373.752 473.073C380.046 467.896 383.462 460.292 384.154 452.286C385.079 441.605 381.166 432.24 375.671 423.318C378.461 434.097 380.136 445.36 374.155 455.447Q373.863 455.949 373.545 456.434Q373.228 456.92 372.886 457.389Q372.544 457.858 372.178 458.309Q371.812 458.759 371.423 459.19Q371.035 459.621 370.624 460.032Q370.214 460.442 369.783 460.831Q369.352 461.22 368.902 461.586Q368.452 461.952 367.983 462.295Q367.514 462.637 367.029 462.955Q366.543 463.273 366.041 463.565Q365.54 463.857 365.024 464.123Q364.508 464.389 363.98 464.629Q363.451 464.868 362.91 465.079Q362.37 465.291 361.819 465.474Q361.268 465.658 360.709 465.812Q360.15 465.967 359.583 466.093C336.765 471.031 261.155 439.483 242.093 426.231C239.598 424.497 237.097 422.429 236.671 419.234C236.363 416.916 237.072 415.225 238.555 413.486C243.304 407.922 251.4 403.421 257.496 399.265C299.557 370.595 348.167 357.247 398.652 354.402C482.366 349.684 570.891 378.673 633.637 434.759Q636.138 436.969 638.584 439.24Q641.029 441.511 643.418 443.841Q645.807 446.172 648.137 448.561Q650.468 450.95 652.739 453.395Q655.009 455.841 657.219 458.342Q659.429 460.843 661.576 463.398Q663.723 465.953 665.807 468.56Q667.89 471.168 669.908 473.826Q671.927 476.483 673.879 479.19Q675.831 481.897 677.716 484.652Q679.6 487.406 681.416 490.206Q683.232 493.006 684.979 495.85Q686.725 498.694 688.401 501.58Q690.076 504.467 691.68 507.393Q693.284 510.32 694.815 513.286Q696.345 516.251 697.803 519.254Q699.26 522.256 700.642 525.294Q702.025 528.331 703.332 531.402Q704.639 534.473 705.87 537.575Q707.101 540.677 708.255 543.808Q709.409 546.94 710.485 550.099Q711.561 553.258 712.559 556.443Q713.557 559.628 714.476 562.836Q715.394 566.044 716.234 569.275Q717.073 572.505 717.832 575.755Q718.592 579.005 719.27 582.272Q719.949 585.54 720.547 588.823Q721.145 592.107 721.661 595.404Q722.178 598.701 722.612 602.01Q723.047 605.319 723.4 608.638Q723.753 611.956 724.024 615.283Q724.295 618.609 724.484 621.941C727.402 675.891 711.734 731.476 675.111 772.125C656.682 792.581 632.845 811.335 606.708 820.576C641.784 790.228 666.648 755.08 670.243 707.174C673.349 665.777 658.287 626.573 631.335 595.556C626.572 590.074 621.252 584.301 615.577 579.777C607.428 608.079 595.788 610.428 573.804 627.201C567.321 632.148 561.91 638.182 555.665 643.329C554.8 641.846 554.892 640.197 554.805 638.526ZM294.954 393.492C291.952 395.789 289.928 397.721 289.494 401.644C289.203 404.276 289.906 406.97 291.599 409.028C293.264 411.053 295.8 412.234 298.396 412.436C299.879 412.551 301.279 412.167 302.698 411.787C305.452 409.637 307.939 407.282 308.439 403.645C308.747 401.399 308.119 399.231 306.689 397.471C304.746 395.08 301.79 393.665 298.744 393.466C297.477 393.382 296.22 393.425 294.954 393.492Z"/>
	<path fill="#0E0E0D" transform="scale(0.982422 0.982422)" d="M302.698 411.787C301.279 412.167 299.879 412.551 298.396 412.436C295.8 412.234 293.264 411.053 291.599 409.028C289.906 406.97 289.203 404.276 289.494 401.644C289.928 397.721 291.952 395.789 294.954 393.492C296.22 393.425 297.477 393.382 298.744 393.466C301.79 393.665 304.746 395.08 306.689 397.471C308.119 399.231 308.747 401.399 308.439 403.645C307.939 407.282 305.452 409.637 302.698 411.787Z"/>
	<path fill="#EFECEA" transform="scale(0.982422 0.982422)" d="M694.48 481.221C702.916 480.437 711.549 481.494 720.017 481.51C732.107 481.533 744.42 479.941 756.229 477.332C786.892 470.557 815.003 450.478 834.509 426.126C840.428 418.737 845.436 410.684 850.545 402.729C856.312 411.878 861.03 441.382 863.327 453.126C860.983 457.024 855.368 461.879 852.057 465.352C828.739 489.81 800.573 506.934 767.658 515.069Q761.731 516.574 755.697 517.564Q749.663 518.554 743.566 519.02C739.367 519.363 734.942 519.296 730.798 519.846L715.629 519.582Q705.497 500.157 694.48 481.221Z"/>
	<defs>
		<linearGradient id="gradient_0" gradientUnits="userSpaceOnUse" x1="734.50647" y1="552.9624" x2="878.34485" y2="509.10107">
			<stop offset="0" stop-color="#33624B"/>
			<stop offset="1" stop-color="#66937E"/>
		</linearGradient>
	</defs>
	<path fill="url(#gradient_0)" transform="scale(0.982422 0.982422)" d="M863.327 453.126C864.486 463.869 866.135 474.506 867.01 485.29Q868.173 500.764 868.003 516.28Q867.832 531.797 866.329 547.241C865.523 555.91 864.75 565.088 862.595 573.54C859.649 574.759 856.336 575.6 853.252 576.436C814.531 586.931 771.058 580.449 736.374 560.575C736.606 549.408 734.993 544.652 731.471 534.233C730.449 531.211 729.04 528.004 728.548 524.844C728.234 522.826 729.684 521.39 730.798 519.846C734.942 519.296 739.367 519.363 743.566 519.02Q749.663 518.554 755.697 517.564Q761.731 516.574 767.658 515.069C800.573 506.934 828.739 489.81 852.057 465.352C855.368 461.879 860.983 457.024 863.327 453.126Z"/>
	<path fill="#305F48" transform="scale(0.982422 0.982422)" d="M340.973 510.318C342.7 512.175 344.066 514.259 345.492 516.347C402.768 522.213 468.895 557.51 511.934 594.761C526.055 606.982 538.523 620.526 550.272 635.035C551.393 636.42 552.276 637.916 553.805 638.892C554.142 638.781 554.527 638.747 554.805 638.526C554.892 640.197 554.8 641.846 555.665 643.329C555.923 643.502 556.19 643.661 556.438 643.848C559.041 645.819 561.402 650.228 563.069 653.034C571.382 667.025 577.653 681.607 578.631 698.034C579.957 720.301 571.504 743.334 556.599 759.829C537.983 780.43 510.846 788.117 483.914 789.398C412.983 792.773 343.711 762.984 291.716 715.686Q289.006 713.247 286.358 710.743Q283.709 708.238 281.123 705.669Q278.538 703.099 276.016 700.467Q273.494 697.835 271.038 695.141Q268.582 692.447 266.193 689.693Q263.805 686.94 261.485 684.128Q259.165 681.316 256.915 678.448Q254.665 675.58 252.486 672.657Q250.308 669.734 248.202 666.759Q246.097 663.783 244.065 660.756Q242.034 657.729 240.077 654.654Q238.121 651.578 236.241 648.454Q234.362 645.331 232.56 642.162Q230.758 638.993 229.034 635.781Q227.311 632.569 225.668 629.315Q224.024 626.061 222.462 622.768Q220.899 619.474 219.418 616.143Q217.937 612.812 216.539 609.446Q215.141 606.079 213.826 602.679Q212.511 599.279 211.281 595.848Q210.051 592.417 208.905 588.956Q207.76 585.495 206.701 582.007Q205.641 578.519 204.668 575.006Q203.695 571.493 202.809 567.957Q201.923 564.421 201.124 560.864Q200.326 557.308 199.615 553.732Q198.905 550.157 198.283 546.565Q197.661 542.973 197.127 539.367Q196.594 535.761 196.15 532.143Q195.706 528.525 195.352 524.896Q194.997 521.268 194.732 517.633Q194.467 513.997 194.292 510.356L286.722 510.377C304.751 510.45 322.973 511.302 340.973 510.318Z"/>
	<path fill="#305F48" transform="scale(0.982422 0.982422)" d="M715.629 519.582L730.798 519.846C729.684 521.39 728.234 522.826 728.548 524.844C729.04 528.004 730.449 531.211 731.471 534.233C734.993 544.652 736.606 549.408 736.374 560.575C734.185 559.526 732.132 558.517 729.739 558.001C727.848 553.733 726.731 548.805 725.295 544.335C722.572 535.854 719.534 527.605 715.629 519.582Z"/>
	<path fill="#EFECEA" transform="scale(0.982422 0.982422)" d="M729.739 558.001C732.132 558.517 734.185 559.526 736.374 560.575C771.058 580.449 814.531 586.931 853.252 576.436C856.336 575.6 859.649 574.759 862.595 573.54Q860.173 585.66 857.221 597.662C855.742 603.662 853.947 609.724 852.85 615.8C812.992 625.551 775.538 618.595 738.738 602.212C735.885 587.286 734.034 572.648 729.739 558.001Z"/>
</svg>
