<svg xmlns="http://www.w3.org/2000/svg" width="41" height="41" fill="none" viewBox="0 0 41 41">
  <path fill="#DE3939" fill-rule="evenodd" d="M26.308 3.956a.615.615 0 0 0-.916-.536l-13.96 7.853a.615.615 0 0 0-.314.536V29.19c0 .222.12.427.313.536 1.816 1.022 11.006 6.19 13.96 7.853a.615.615 0 0 0 .917-.536V3.956ZM9.345 12.064a.615.615 0 0 0-.615-.615H4.137a.615.615 0 0 0-.615.615v16.872a.615.615 0 0 0 .615.615H8.73a.615.615 0 0 0 .615-.615V12.064Zm24.125 6.874-2.214-2.214a1.051 1.051 0 0 0-1.486 1.486l2.214 2.214-2.214 2.214a1.051 1.051 0 0 0 1.486 1.486l2.214-2.214 2.214 2.214a1.051 1.051 0 0 0 1.486-1.486l-2.214-2.214 2.214-2.214a1.051 1.051 0 0 0-1.486-1.486l-2.214 2.214Z" clip-rule="evenodd"/>
</svg>
